<?xml version="1.0" standalone="no"?><!DOCTYPE svg PUBLIC "-//W3C//DTD SVG 1.1//EN" "http://www.w3.org/Graphics/SVG/1.1/DTD/svg11.dtd"><svg class="icon" width="200px" height="200.00px" viewBox="0 0 1024 1024" version="1.1" xmlns="http://www.w3.org/2000/svg"><path d="M0 0h1024v1024H0z" fill="#FF0033" fill-opacity="0" /><path d="M511.914667 154.069333l-0.554667-0.426666c-113.024-85.525333-272.021333-75.52-374.016 27.626666C83.562667 235.818667 53.333333 310.08 53.333333 387.541333c0 77.44 30.229333 151.701333 83.989334 206.229334l294.698666 300.053333a110.72 110.72 0 0 0 79.914667 34.176 110.976 110.976 0 0 0 80.213333-34.474667l294.421334-299.52c53.824-54.485333 84.096-128.810667 84.096-206.336 0-77.525333-30.293333-151.850667-84.138667-206.378666-100.245333-101.397333-255.530667-112.789333-368.128-32l-6.485333 4.778666z m329.088 72.192c41.984 42.496 65.664 100.672 65.664 161.408 0 60.757333-23.68 118.912-65.685334 161.408L546.197333 848.96a47.253333 47.253333 0 0 1-34.261333 15.04 46.976 46.976 0 0 1-33.962667-14.72L182.933333 548.864C140.970667 506.325333 117.333333 448.213333 117.333333 387.541333c0-60.693333 23.637333-118.805333 65.557334-161.301333 84.608-85.568 219.114667-88.618667 307.306666-6.933333l21.738667 20.138666 21.76-20.138666c88.149333-81.685333 222.677333-78.634667 307.306667 6.954666z" fill="#111111" /></svg>